<svg width="23" height="24" viewBox="0 0 23 24" fill="none" xmlns="http://www.w3.org/2000/svg">
<path d="M4.25977 21.9238H18.7419" stroke="white" stroke-opacity="0.7" stroke-width="1.5" stroke-linecap="round" stroke-linejoin="round"/>
<path d="M11.5006 10.3255C12.8127 10.3255 13.8763 9.26189 13.8763 7.94986C13.8763 6.63783 12.8127 5.57422 11.5006 5.57422C10.1886 5.57422 9.125 6.63783 9.125 7.94986C9.125 9.26189 10.1886 10.3255 11.5006 10.3255Z" stroke="white" stroke-opacity="0.7" stroke-width="1.5" stroke-linecap="round" stroke-linejoin="round"/>
<path d="M17.4388 7.95082C17.4388 13.296 11.4997 17.4534 11.4997 17.4534C11.4997 17.4534 5.56055 13.296 5.56055 7.95082C5.56055 6.37567 6.18627 4.86504 7.30007 3.75124C8.41387 2.63744 9.9245 2.01172 11.4997 2.01172C13.0748 2.01172 14.5854 2.63744 15.6992 3.75124C16.813 4.86504 17.4388 6.37567 17.4388 7.95082V7.95082Z" stroke="white" stroke-opacity="0.7" stroke-width="1.5" stroke-linecap="round" stroke-linejoin="round"/>
</svg>
